<?xml version="1.0" encoding="UTF-8" standalone="no"?>
<svg
   xmlns:dc="http://purl.org/dc/elements/1.1/"
   xmlns:cc="http://creativecommons.org/ns#"
   xmlns:rdf="http://www.w3.org/1999/02/22-rdf-syntax-ns#"
   xmlns:svg="http://www.w3.org/2000/svg"
   xmlns="http://www.w3.org/2000/svg"
   xmlns:sodipodi="http://sodipodi.sourceforge.net/DTD/sodipodi-0.dtd"
   xmlns:inkscape="http://www.inkscape.org/namespaces/inkscape"
   width="48"
   height="48"
   version="1.1"
   viewBox="0 0 48 48"
   id="svg3735"
   sodipodi:docname="droidshows6-plain.svg"
   inkscape:version="0.92.0 r15299">
  <sodipodi:namedview
     pagecolor="#ffffff"
     bordercolor="#666666"
     borderopacity="1"
     objecttolerance="10"
     gridtolerance="10"
     guidetolerance="10"
     inkscape:pageopacity="0"
     inkscape:pageshadow="2"
     inkscape:window-width="1856"
     inkscape:window-height="1057"
     id="namedview3737"
     showgrid="false"
     inkscape:zoom="18.208333"
     inkscape:cx="22.105263"
     inkscape:cy="24"
     inkscape:window-x="-8"
     inkscape:window-y="-8"
     inkscape:window-maximized="1"
     inkscape:current-layer="svg3735" />
  <metadata
     id="metadata3711">
    <rdf:RDF>
      <cc:Work
         rdf:about="">
        <dc:format>image/svg+xml</dc:format>
        <dc:type
           rdf:resource="http://purl.org/dc/dcmitype/StillImage" />
        <dc:title></dc:title>
      </cc:Work>
    </rdf:RDF>
  </metadata>
  <defs
     id="defs3719" />
  <path
     style="display:inline;stroke-width:2"
     clip-path="none"
     d="M 4 7 C 1.8 7 0 8.78 0 11 L 0 35 C 0 37.2 1.8 39 4 39 L 33 39 L 33 35 L 4 35 L 4 11 L 40 11 L 40 24 L 44 24 L 44 11 C 44 8.78 42.2 7 40 7 L 24.820312 7 L 22 7 L 19.179688 7 L 4 7 z M 17.236328 7.5488281 L 18.832031 7.5488281 L 18.832031 9.1445312 L 17.236328 9.1445312 L 17.236328 7.5488281 z M 25.216797 7.5488281 L 26.8125 7.5488281 L 26.8125 9.1445312 L 25.216797 9.1445312 L 25.216797 7.5488281 z "
     id="path3721" />
  <path
     d="m22 15c-4.416 0-8 3.584-8 8s3.584 8 8 8 8-3.584 8-8-3.584-8-8-8zm-1.6 11.6v-7.2l4.8 3.6z"
     id="path3727"
     stroke-width=".8" />
  <path
     d="m45 25h-8c-1.66 0-3 1.34-3 3v16c0 1.66 1.34 3 3 3h8c1.66 0 3-1.34 3-3v-16c0-1.66-1.34-3-3-3zm-2 20h-4v-1h4zm3.25-3h-10.5v-14h10.5z"
     id="path3729" />
  <path
     d="m40.81 32.857h-3.8095v1.4286h5v-1.4286m-0.42857-2.8571h-4.5714v1.4286h8v-1.4286m-1.0435 3.9286 1.0435 1.0714-4.8696 5-3.1304-3.2143l1.0435-1.0714 2.087 2.1429z"
     id="path3731"
     stroke-width=".52164" />
  <path
     style="stroke-width:1.59609342"
     clip-path="none"
     d="M 14.832031 1.1640625 C 14.628524 1.1640625 14.42524 1.2446815 14.265625 1.4042969 C 13.946394 1.7235275 13.946394 2.2178787 14.265625 2.5371094 L 16.357422 4.6289062 C 14.333925 6.1191754 12.91627 8.3850976 12.548828 11 L 31.498047 11 C 31.130507 8.3809189 29.709593 6.1019707 27.658203 4.6113281 L 29.732422 2.5371094 C 30.051653 2.2178787 30.051653 1.7235275 29.732422 1.4042969 C 29.413191 1.0850662 28.91884 1.0850662 28.599609 1.4042969 L 26.238281 3.765625 C 24.977376 3.1271757 23.539804 2.7597656 22.023438 2.7597656 C 20.491149 2.7597656 19.05429 3.1271757 17.777344 3.765625 L 15.400391 1.4042969 C 15.240775 1.2446815 15.035538 1.1640625 14.832031 1.1640625 z M 17.234375 7.5488281 L 18.832031 7.5488281 L 18.832031 9.1445312 L 17.234375 9.1445312 L 17.234375 7.5488281 z M 25.216797 7.5488281 L 26.8125 7.5488281 L 26.8125 9.1445312 L 25.216797 9.1445312 L 25.216797 7.5488281 z "
     id="path3733" />
</svg>
