<?xml version="1.0" encoding="UTF-8" standalone="no"?>
<svg
   xmlns:dc="http://purl.org/dc/elements/1.1/"
   xmlns:cc="http://creativecommons.org/ns#"
   xmlns:rdf="http://www.w3.org/1999/02/22-rdf-syntax-ns#"
   xmlns:svg="http://www.w3.org/2000/svg"
   xmlns="http://www.w3.org/2000/svg"
   xmlns:sodipodi="http://sodipodi.sourceforge.net/DTD/sodipodi-0.dtd"
   xmlns:inkscape="http://www.inkscape.org/namespaces/inkscape"
   version="1.1"
   width="48"
   height="48"
   id="svg4832"
   sodipodi:docname="icon_foreground-optimized.svg"
   inkscape:export-filename="E:\icon_background.png"
   inkscape:export-xdpi="1500"
   inkscape:export-ydpi="1500"
   inkscape:version="0.92.0 r15299">
  <metadata
     id="metadata4836">
    <rdf:RDF>
      <cc:Work
         rdf:about="">
        <dc:format>image/svg+xml</dc:format>
        <dc:type
           rdf:resource="http://purl.org/dc/dcmitype/StillImage" />
        <dc:title></dc:title>
      </cc:Work>
    </rdf:RDF>
  </metadata>
  <sodipodi:namedview
     pagecolor="#ffffff"
     bordercolor="#666666"
     borderopacity="1"
     objecttolerance="10"
     gridtolerance="10"
     guidetolerance="10"
     inkscape:pageopacity="0"
     inkscape:pageshadow="2"
     inkscape:window-width="1856"
     inkscape:window-height="1057"
     id="namedview4834"
     showgrid="false"
     inkscape:zoom="51.500944"
     inkscape:cx="20.223447"
     inkscape:cy="14.387818"
     inkscape:window-x="-8"
     inkscape:window-y="-8"
     inkscape:window-maximized="1"
     inkscape:current-layer="g4830"
     showguides="true"
     inkscape:guide-bbox="true">
    <sodipodi:guide
       position="8.6600355,18.737521"
       orientation="-0.70660404,-0.70760917"
       id="guide5477"
       inkscape:locked="false" />
  </sodipodi:namedview>
  <defs
     id="defs4810">
    <linearGradient
       x1="10.46951"
       y1="11.07951"
       x2="65.81477"
       y2="65.20476"
       gradientUnits="userSpaceOnUse"
       id="color-1">
      <stop
         offset="0"
         stop-color="#000000"
         stop-opacity="0.13"
         id="stop4787" />
      <stop
         offset="1"
         stop-color="#000000"
         stop-opacity="0"
         id="stop4789" />
    </linearGradient>
    <filter
       id="dropshadow-base">
      <feColorMatrix
         type="matrix"
         values="0 0 0 0 0  0 0 0 0 0  0 0 0 0 0  0 0 0 .8 0"
         id="feColorMatrix4792" />
      <feOffset
         dx="0"
         dy="1"
         id="feOffset4794" />
      <feGaussianBlur
         stdDeviation="1"
         id="feGaussianBlur4796"
         result="result1" />
      <feComposite
         in="SourceGraphic"
         in2="result1"
         id="feComposite4798" />
    </filter>
    <filter
       id="dropshadow-banner"
       x="-10%"
       y="-10%"
       width="120%"
       height="130%">
      <feColorMatrix
         type="matrix"
         values="0 0 0 0 0  0 0 0 0 0  0 0 0 0 0  0 0 0 .4 0"
         id="feColorMatrix4801" />
      <feOffset
         dx="0"
         dy="1"
         id="feOffset4803" />
      <feGaussianBlur
         stdDeviation="0.5"
         id="feGaussianBlur4805"
         result="result1" />
      <feComposite
         in="SourceGraphic"
         in2="result1"
         id="feComposite4807" />
    </filter>
    <linearGradient
       x1="10.46951"
       y1="11.07951"
       x2="65.814774"
       y2="65.204758"
       gradientUnits="userSpaceOnUse"
       id="color-1-1"
       gradientTransform="translate(3.8120498,19.8641)">
      <stop
         offset="0"
         stop-color="#000000"
         stop-opacity="0.13"
         id="stop4787-4" />
      <stop
         offset="1"
         stop-color="#000000"
         stop-opacity="0"
         id="stop4789-8" />
    </linearGradient>
    <linearGradient
       x1="10.46951"
       y1="11.07951"
       x2="65.814774"
       y2="65.204758"
       gradientUnits="userSpaceOnUse"
       id="color-1-1-2"
       spreadMethod="pad">
      <stop
         offset="0"
         stop-color="#000000"
         stop-opacity="0.13"
         id="stop4787-4-9" />
      <stop
         offset="1"
         stop-color="#000000"
         stop-opacity="0"
         id="stop4789-8-4" />
    </linearGradient>
  </defs>
  <g
     stroke-width="none"
     stroke-miterlimit="10"
     font-weight="none"
     font-size="none"
     text-anchor="none"
     style="font-family:none;display:inline;mix-blend-mode:normal;fill:none;fill-rule:nonzero;stroke:none;stroke-linecap:butt;stroke-linejoin:miter;stroke-miterlimit:10;stroke-dasharray:none;stroke-dashoffset:0"
     id="g4830">
    <path
       sodipodi:nodetypes="ssssccscsccscsccsccsscs"
       style="font-family:none;display:inline;mix-blend-mode:normal;fill:#000000;fill-opacity:0.09803922;fill-rule:nonzero;stroke:none;stroke-width:1;stroke-linecap:butt;stroke-linejoin:miter;stroke-miterlimit:10;stroke-dasharray:none;stroke-dashoffset:0"
       inkscape:connector-curvature="0"
       id="path5427"
       d="M 11.13194,31.74789 C 10.72321,31.33916 10.46951,30.77538 10.46951,30.15523 V 16.62474 c 0,-1.25157 1.01479,-2.25509 2.25509,-2.25509 h 5.6845 c 0.34771,-0.51611 0.78216,-0.96845 1.28224,-1.33676 L 18.51205,11.8536 c -0.17997,-0.17997 -0.17997,-0.45867 0,-0.63865 0.08999,-0.08999 0.20459,-0.13544 0.31932,-0.13544 0.11473,0 0.23044,0.04545 0.32043,0.13544 l 1.34006,1.33125 c 0.7199,-0.35994 1.52996,-0.56708 2.39383,-0.56708 0.85488,0 1.66535,0.20714 2.3762,0.56708 l 1.33125,-1.33125 c 0.17997,-0.17997 0.45867,-0.17997 0.63865,0 l 3.1547,3.1547 h 2.63385 c 0.62155,0 1.18647,0.25202 1.59543,0.66097 l 8.38424,8.38424 48.373401,48.292749 c 0.7817,0.780396 -24.755444,15.404826 -25.537566,14.624852 L 22.38405,42.99999 Z" />
    <path
       d="m 33.02033,14.36965 c 1.2403,0 2.25508,1.00351 2.25508,2.25508 v 7.32902 H 33.02033 V 16.62473 H 12.72459 V 30.15522 H 29.07394 V 32.4103 H 12.72459 c -1.2403,0 -2.25508,-1.01479 -2.25508,-2.25508 V 16.62473 c 0,-1.25157 1.01479,-2.25508 2.25508,-2.25508 h 5.6845 c 0.34771,-0.51611 0.78216,-0.96845 1.28225,-1.33675 l -1.17929,-1.17929 c -0.17997,-0.17997 -0.17997,-0.45867 0,-0.63865 0.08999,-0.08999 0.20459,-0.13544 0.31932,-0.13544 0.11473,0 0.23044,0.04545 0.32042,0.13544 l 1.34006,1.33125 c 0.7199,-0.35994 1.52996,-0.56707 2.39382,-0.56707 0.85488,0 1.66534,0.20714 2.3762,0.56707 l 1.33125,-1.33125 c 0.17997,-0.17997 0.45867,-0.17997 0.63865,0 0.17997,0.17997 0.17997,0.45867 0,0.63865 l -1.16938,1.16938 c 0.50911,0.36995 0.94935,0.82602 1.30036,1.34666 z m -5.63771,9.02033 c 0,2.48961 -2.02055,4.51016 -4.51016,4.51016 -2.48961,0 -4.51016,-2.02055 -4.51016,-4.51016 0,-2.48961 2.02055,-4.51016 4.51016,-4.51016 2.48961,0 4.51016,2.02055 4.51016,4.51016 z m -2.7061,0 -2.7061,-2.02957 v 4.05915 z m 12.85397,2.81886 v 9.02033 c 0,0.93586 -0.75545,1.69131 -1.69131,1.69131 h -4.51016 c -0.93586,0 -1.69131,-0.75545 -1.69131,-1.69131 v -9.02033 c 0,-0.93586 0.75545,-1.69131 1.69131,-1.69131 h 4.51016 c 0.93586,0 1.69131,0.75545 1.69131,1.69131 z m -2.81885,9.02032 h -2.25508 v 0.56377 h 2.25508 z m 1.83226,-9.02032 h -5.91959 v 7.89279 h 5.91959 z m -2.39575,2.73823 v 0.8054 H 31.3293 v -0.8054 h 2.14768 z m 1.69133,-1.61075 v 0.8054 h -4.51016 v -0.8054 h 2.57722 z m -0.58829,2.21483 0.58829,0.60402 -2.74534,2.81885 -1.76483,-1.81213 0.58829,-0.60402 1.17659,1.2081 z M 20.18684,15.57868 h 0.89961 v -0.89961 h -0.89961 z m 4.49915,0 h 0.89961 v -0.89961 h -0.89961 z"
       id="path3721 1 1"
       inkscape:connector-curvature="0"
       style="fill:none;stroke-width:0" />
    <path
       d="M 2,24 C 2,11.84974 11.84974,2 24,2 36.15026,2 46,11.84974 46,24 46,36.15026 36.15026,46 24,46 11.84974,46 2,36.15026 2,24 Z"
       id="base 1 1 1"
       inkscape:connector-curvature="0"
       style="fill:none;stroke-width:1" />
    <g
       id="svg3735 1 1"
       font-weight="400"
       font-size="14"
       style="font-weight:400;font-size:14px;font-family:Roboto, sans-serif;text-anchor:start;fill:#000000;stroke-width:1" />
    <rect
       x="2"
       y="2"
       width="44"
       height="22"
       id="rect4820"
       style="fill:none;stroke-width:1" />
    <path
       d="M 2,24 V 2 h 44 v 22 z"
       id="path4822"
       inkscape:connector-curvature="0"
       style="fill:none;stroke-width:1" />
    <path
       d="M 2,24 V 2 h 44 v 22 z"
       id="path4824"
       inkscape:connector-curvature="0"
       style="fill:none;stroke-width:1" />
    <path
       d="M 2,24 V 2 h 44 v 22 z"
       id="path4826"
       inkscape:connector-curvature="0"
       style="fill:none;stroke-width:1" />
    <path
       d="M 2,24 V 2 h 44 v 22 z"
       id="path4828"
       inkscape:connector-curvature="0"
       style="fill:none;stroke-width:1" />
    <path
       d="m 33.02033,14.36965 c 1.2403,0 2.25508,1.00351 2.25508,2.25508 v 7.32902 H 33.02033 V 16.62473 H 12.72459 V 30.15522 H 29.07394 V 32.4103 H 12.72459 c -1.2403,0 -2.25508,-1.01479 -2.25508,-2.25508 V 16.62473 c 0,-1.25157 1.01479,-2.25508 2.25508,-2.25508 h 5.6845 c 0.34771,-0.51611 0.78216,-0.96845 1.28225,-1.33675 l -1.17929,-1.17929 c -0.17997,-0.17997 -0.17997,-0.45867 0,-0.63865 0.08999,-0.08999 0.20459,-0.13544 0.31932,-0.13544 0.11473,0 0.23044,0.04545 0.32042,0.13544 l 1.34006,1.33125 c 0.7199,-0.35994 1.52996,-0.56707 2.39382,-0.56707 0.85488,0 1.66534,0.20714 2.3762,0.56707 l 1.33125,-1.33125 c 0.17997,-0.17997 0.45867,-0.17997 0.63865,0 0.17997,0.17997 0.17997,0.45867 0,0.63865 l -1.16938,1.16938 c 0.50911,0.36995 0.94935,0.82602 1.30036,1.34666 z m -5.63771,9.02033 c 0,2.48961 -2.02055,4.51016 -4.51016,4.51016 -2.48961,0 -4.51016,-2.02055 -4.51016,-4.51016 0,-2.48961 2.02055,-4.51016 4.51016,-4.51016 2.48961,0 4.51016,2.02055 4.51016,4.51016 z m -2.7061,0 -2.7061,-2.02957 v 4.05915 z m 12.85397,2.81886 v 9.02033 c 0,0.93586 -0.75545,1.69131 -1.69131,1.69131 h -4.51016 c -0.93586,0 -1.69131,-0.75545 -1.69131,-1.69131 v -9.02033 c 0,-0.93586 0.75545,-1.69131 1.69131,-1.69131 h 4.51016 c 0.93586,0 1.69131,0.75545 1.69131,1.69131 z m -2.81885,9.02032 h -2.25508 v 0.56377 h 2.25508 z m 1.83226,-9.02032 h -5.91959 v 7.89279 h 5.91959 z m -2.39575,2.73823 v 0.8054 H 31.3293 v -0.8054 z m 1.69133,-1.61075 v 0.8054 h -4.51016 v -0.8054 z m -0.58829,2.21483 0.58829,0.60402 -2.74534,2.81885 -1.76483,-1.81213 0.58829,-0.60402 1.17659,1.2081 z M 20.18684,15.57868 h 0.89961 v -0.89961 h -0.89961 z m 4.49915,0 h 0.89961 v -0.89961 h -0.89961 z"
       id="path4816"
       inkscape:connector-curvature="0"
       style="fill:#ffffff;stroke-width:0" />
  </g>
</svg>
