<?xml version="1.0" encoding="UTF-8" standalone="no"?>
<svg
   xmlns:dc="http://purl.org/dc/elements/1.1/"
   xmlns:cc="http://creativecommons.org/ns#"
   xmlns:rdf="http://www.w3.org/1999/02/22-rdf-syntax-ns#"
   xmlns:svg="http://www.w3.org/2000/svg"
   xmlns="http://www.w3.org/2000/svg"
   xmlns:sodipodi="http://sodipodi.sourceforge.net/DTD/sodipodi-0.dtd"
   xmlns:inkscape="http://www.inkscape.org/namespaces/inkscape"
   width="48"
   height="48"
   viewBox="0 0 48 48"
   version="1.1"
   id="svg3682"
   sodipodi:docname="droidshows6.svg"
   inkscape:version="0.92.0 r15299">
  <metadata
     id="metadata3688">
    <rdf:RDF>
      <cc:Work
         rdf:about="">
        <dc:format>image/svg+xml</dc:format>
        <dc:type
           rdf:resource="http://purl.org/dc/dcmitype/StillImage" />
        <dc:title />
      </cc:Work>
    </rdf:RDF>
  </metadata>
  <defs
     id="defs3686">
    <clipPath
       clipPathUnits="userSpaceOnUse"
       id="clipPath3973">
      <rect
         style="fill:#ffffff;stroke-width:0.95664734"
         id="rect3975"
         width="13.348112"
         height="4.8886943"
         x="16.30864"
         y="-2.1873569" />
    </clipPath>
    <clipPath
       clipPathUnits="userSpaceOnUse"
       id="clipPath4006">
      <rect
         style="fill:#ffffff;stroke-width:0.835343"
         id="rect4008"
         width="16.003647"
         height="8.3534307"
         x="15.019811"
         y="-2.3107209" />
    </clipPath>
    <clipPath
       clipPathUnits="userSpaceOnUse"
       id="clipPath3704">
      <path
         inkscape:label="Cutout"
         style="display:inline;fill:none;stroke:#000000;stroke-width:0.5px;stroke-linecap:butt;stroke-linejoin:miter;stroke-opacity:1"
         d="M 1,6 V 22 H 17.5 V 14.5 H 23 V 6 Z m 8.618164,0.274414 h 0.797852 V 7.0722655 H 9.618164 Z m 3.990235,0 h 0.797851 v 0.7978515 h -0.797851 z"
         id="path3707"
         inkscape:connector-curvature="0"
         sodipodi:nodetypes="ccccccccccccccccc" />
    </clipPath>
  </defs>
  <sodipodi:namedview
     pagecolor="#ffffff"
     bordercolor="#666666"
     borderopacity="1"
     objecttolerance="10"
     gridtolerance="10"
     guidetolerance="10"
     inkscape:pageopacity="0"
     inkscape:pageshadow="2"
     inkscape:window-width="1856"
     inkscape:window-height="1057"
     id="namedview3684"
     showgrid="true"
     inkscape:measure-start="0,0"
     inkscape:measure-end="0,0"
     showguides="false"
     inkscape:guide-bbox="true"
     inkscape:zoom="22.627418"
     inkscape:cx="26.058537"
     inkscape:cy="14.864563"
     inkscape:window-x="-8"
     inkscape:window-y="-8"
     inkscape:window-maximized="1"
     inkscape:current-layer="svg3682">
    <inkscape:grid
       type="xygrid"
       id="grid3723" />
    <sodipodi:guide
       position="31,15"
       orientation="1,0"
       id="guide3921"
       inkscape:locked="false" />
    <sodipodi:guide
       position="15,15"
       orientation="1,0"
       id="guide3923"
       inkscape:locked="false" />
    <sodipodi:guide
       position="16.308639,48.449657"
       orientation="1,0"
       id="guide3954"
       inkscape:locked="false" />
    <sodipodi:guide
       position="29.656751,48.707094"
       orientation="1,0"
       id="guide3956"
       inkscape:locked="false" />
    <sodipodi:guide
       position="18.728547,50.187357"
       orientation="0,1"
       inkscape:locked="false"
       id="guide3958" />
  </sodipodi:namedview>
  <path
     clip-path="url(#clipPath3704)"
     sodipodi:nodetypes="scccccccssssssssccccc"
     inkscape:label="ic_live_tv"
     style="display:inline;fill:#000000"
     inkscape:connector-curvature="0"
     d="M 21,6 H 13.41 L 16.7,2.71 16,2 12,6 8,2 7.29,2.71 10.59,6 H 3 C 1.9,6 1,6.89 1,8 v 12 c 0,1.1 0.9,2 2,2 h 18 c 1.1,0 2,-0.9 2,-2 V 8 C 23,6.89 22.1,6 21,6 Z m 0,14 H 3 V 8 h 18 z"
     id="path54"
     transform="matrix(2,0,0,2,-2,-5)"
     mask="none" />
  <path
     style="display:none;stroke-width:2"
     d="M 15,15 V 31 L 29,23 Z"
     id="path3847"
     inkscape:connector-curvature="0"
     sodipodi:nodetypes="cccc"
     inkscape:label="ic_play_arrow" />
  <path
     id="path3860"
     d="m 20.403245,26.596116 4.802254,-3.598794 -4.802254,-3.598795 z M 22.003996,15 c -4.418074,0 -8.003756,3.582801 -8.003756,7.997322 0,4.414521 3.585682,7.997323 8.003756,7.997323 4.418074,0 8.003758,-3.582802 8.003758,-7.997323 C 30.007754,18.582801 26.42207,15 22.003996,15 Z m 0,14.395178 c -3.529657,0 -6.403004,-2.871037 -6.403004,-6.397856 0,-3.526819 2.873347,-6.397855 6.403004,-6.397855 3.529658,0 6.403007,2.871036 6.403007,6.397855 0,3.526819 -2.873349,6.397856 -6.403007,6.397856 z"
     inkscape:connector-curvature="0"
     style="display:none;stroke-width:0.80005395"
     inkscape:label="ic_play_circle_outline_black" />
  <path
     id="path4029"
     d="m 22,15 c -4.416,0 -8,3.584 -8,8 0,4.416 3.584,8 8,8 4.416,0 8,-3.584 8,-8 0,-4.416 -3.584,-8 -8,-8 z m -1.6,11.6 v -7.2 l 4.8,3.6 z"
     inkscape:connector-curvature="0"
     style="display:inline;stroke-width:0.80000001"
     inkscape:label="ic_play_circle_filled_black" />
  <path
     style="display:inline;fill:#000000"
     inkscape:connector-curvature="0"
     d="m 45,25 h -8 c -1.66,0 -3,1.34 -3,3 v 16 c 0,1.66 1.34,3 3,3 h 8 c 1.66,0 3,-1.34 3,-3 V 28 c 0,-1.66 -1.34,-3 -3,-3 z m -2,20 h -4 v -1 h 4 z m 3.25,-3 H 35.75 V 28 h 10.5 z"
     id="path20"
     inkscape:label="ic_phone_android" />
  <path
     sodipodi:nodetypes="ccccccccccscccccs"
     style="display:inline;stroke-width:0.52164054"
     inkscape:connector-curvature="0"
     d="M 40.809524,32.857143 H 37 v 1.428571 h 5 V 32.857143 M 41.571429,30 H 37 v 1.428571 h 8 V 30 M 43.956521,33.928571 45,35 40.130433,40 37,36.785714 l 1.043478,-1.071428 2.086955,2.142857 z"
     id="path3750"
     inkscape:label="ic_playlist_add_check" />
  <path
     id="path3905"
     d="m 27.718254,0.70666664 1.733334,-1.73333314 c 0.266667,-0.2666666 0.266667,-0.68 0,-0.9466667 -0.266667,-0.2666668 -0.68,-0.2666668 -0.946668,0 L 26.531587,0 c -1.053335,-0.53333324 -2.253331,-0.83999994 -3.52,-0.83999994 -1.28,0 -2.479999,0.3066667 -3.546666,0.83999994 l -1.986666,-1.9733332 c -0.266667,-0.2666668 -0.680001,-0.2666668 -0.946667,0 -0.266667,0.2666667 -0.266667,0.6800001 0,0.9466667 l 1.746667,1.74666653 C 16.304921,2.1733334 15.011588,4.5066666 15.011588,7.1599986 h 16 c 0,-2.653332 -1.293333,-4.9999986 -3.293334,-6.45333196 z M 20.34492,4.4933336 H 19.011589 V 3.1599997 h 1.333331 z m 6.666667,0 H 25.678255 V 3.1599997 h 1.333332 z"
     inkscape:connector-curvature="0"
     sodipodi:nodetypes="cssscsccsscccccccccccccc"
     style="display:inline;stroke-width:1.33333349"
     inkscape:label="ic_android"
     clip-path="url(#clipPath4006)"
     transform="matrix(1.197113,0,0,1.197113,-5.5232844,3.766194)" />
</svg>
